<?xml version="1.0" encoding="UTF-8"?>
<svg xmlns="http://www.w3.org/2000/svg" version="1.1" viewBox="0 0 291.2 426.8">
  <!-- Generator: Adobe Illustrator 29.2.1, SVG Export Plug-In . SVG Version: 2.1.0 Build 116)  -->
  <defs>
    <style>
      .st0 {
        fill: #f9005a;
        mix-blend-mode: overlay;
      }

      .st1 {
        isolation: isolate;
      }
    </style>
  </defs>
  <g class="st1">
    <g id="Layer_1">
      <path class="st0" d="M275.3,250.5c11.4-74.4,10.7-108.9,10.7-108.9,0,0,.5-50.1-38.3-88C203.9,6.6,141.8,8.9,139.6,9c-2.2-.1-52.5-2.4-96.2,44.7C4.5,91.5,5,141.7,5,141.7c0,0-.7,34.4,10.7,108.9,0,0-6.7,5.8-.3,16.1,6.4,10.3,15.6,19.7,15.6,19.7,0,0,.2,21.2,17.8,34.8,0,0,1.9,11,2.9,20.6,1,9.6,0,34.3,2.4,36.7s28.3,37.4,41.6,41.5c13,4,42,.6,43.8.4,1.7.2,42.7,3.6,55.7-.4,13.4-4.1,39.2-39.1,41.6-41.5s1.4-27.1,2.4-36.7c1-9.6,7.2-15.4,7.2-15.4,29.5-20,28.7-35.5,28.7-35.5,0,0-6-13.9.4-24.2,6.4-10.3-.3-16.1-.3-16.1Z"/>
    </g>
  </g>
</svg>