<svg width="73" height="62" viewBox="0 0 73 62" fill="none" xmlns="http://www.w3.org/2000/svg">
<path d="M33.1138 0.00145306C31.4554 0.00145321 30.1682 0.745319 28.4419 2.197L1.72778 27.3686C0.475285 28.6199 4.81457e-06 29.8698 4.91219e-06 30.9842C5.01285e-06 32.1331 0.475286 33.383 1.72778 34.6343L28.4419 59.5666C30.3719 61.1552 31.3875 62 33.0473 62C35.3833 62 37.075 60.1072 37.075 57.8439L37.075 45.0714L38.0573 45.0714C62.4022 45.0714 73 29.4964 73 4.52805C73 1.6218 71.3401 0.00144973 69.5473 0.00144989C68.0897 0.00145001 66.5324 0.337342 65.381 2.49973C59.4566 13.5495 51.1601 16.8594 38.0573 16.8594L37.075 16.8594L37.075 3.95286C37.075 1.68956 35.3833 0.00145287 33.1138 0.00145306Z" fill="white"/>
</svg>
